# xmcd CD database file
#
# Track frame offsets:
#	150
#	22056
#	47219
#	58349
#	71503
#	84012
#	99886
#	112601
#	125565
#	140332
#	154873
#	166238
#
# Disc length: 2803 seconds
#
# Revision: 0
# Processed by: cddbd v1.4PL0 Copyright (c) Steve Scherf et al.
# Submitted via: CDex 1.40Beta9
#
DISCID=950af10c
DTITLE=Charles Mato-Toyela - Lakkota Legends
DYEAR=2001
DGENRE=Native American
TTITLE0=Blue Crane
TTITLE1=Lonely Flute #1
TTITLE2=Lonely Flute #2
TTITLE3=Lonely Flute #3
TTITLE4=Rain Under a Tin Shed
TTITLE5=To Them All
TTITLE6=Small Rain
TTITLE7=Dusk
TTITLE8=The Open Land
TTITLE9=When You Hear Them
TTITLE10=Night Sounds
TTITLE11=Story of the Flute
EXTD=YEAR: 2001 ID3G: 64
EXTT0=
EXTT1=
EXTT2=
EXTT3=
EXTT4=
EXTT5=
EXTT6=
EXTT7=
EXTT8=
EXTT9=
EXTT10=
EXTT11=
PLAYORDER=
